<?xml version="1.0" encoding="UTF-8"?>
<svg width="853px" height="228px" viewBox="0 0 853 228" version="1.1" xmlns="http://www.w3.org/2000/svg" xmlns:xlink="http://www.w3.org/1999/xlink">
    <title>nfthing-logo-white</title>
    <g id="Page-1" stroke="none" stroke-width="1" fill="none" fill-rule="evenodd">
        <g id="nfthing-logo-white" transform="translate(0.750000, 0.700000)" fill="#FFFFFF" fill-rule="nonzero">
            <polygon id="Path" points="464.97 0.01 313.58 0.01 313.58 35.05 367.18 35.05 367.18 190.48 411.37 190.48 411.37 35.05 464.97 35.05"></polygon>
            <polygon id="Path" points="178.71 0.01 178.71 190.48 223.16 190.48 223.16 116.36 288.26 116.36 289.08 116.36 289.08 82.24 288.26 82.24 223.16 82.24 223.16 35.05 301.33 35.05 301.33 34 301.33 0.01"></polygon>
            <path d="M143.28,0.01 C139.88,0.01 137.03,0.55 134.72,1.64 C132.41,2.73 130.12,4.62 127.86,7.33 L38.96,119.78 L38.96,102.11 L38.96,84.98 L38.96,0.01 L0,0.01 L0,190.48 L23.27,190.48 C25.19,190.48 26.8,190.39 28.11,190.22 C29.42,190.04 30.59,189.72 31.64,189.24 C32.69,188.76 33.69,188.08 34.65,187.21 C35.61,186.34 36.7,185.16 37.92,183.68 L127.34,70.78 L127.34,89.69 L127.34,90.05 L127.34,190.48 L166.3,190.48 L166.3,0.01 L143.28,0.01 Z" id="Path"></path>
            <path d="M530.02,114.92 C528.71,110.5 526.76,106.77 524.16,103.73 C521.57,100.69 518.3,98.35 514.37,96.72 C510.43,95.09 505.84,94.27 500.59,94.27 C493.42,94.27 486.79,96.05 480.71,99.6 C474.63,103.15 469.38,107.91 464.96,113.86 L464.96,51.64 L464.96,47.26 L459.87,47.26 L459.87,51.64 L459.87,190.49 L464.96,190.49 L464.96,118.76 C469.5,112.36 474.71,107.35 480.56,103.73 C486.42,100.11 492.8,98.3 499.72,98.3 C504.33,98.3 508.33,99.02 511.72,100.46 C515.11,101.9 517.94,103.98 520.22,106.7 C522.49,109.42 524.17,112.73 525.26,116.64 C526.35,120.55 526.89,124.96 526.89,129.89 L526.89,190.48 L531.980112,190.48 L531.980112,129.89 C531.99,124.33 531.33,119.33 530.02,114.92 Z" id="Path"></path>
            <polygon id="Path" points="565.88 94.49 565.88 95.81 565.88 190.48 570.88 190.48 570.88 95.81 570.88 94.49"></polygon>
            <path d="M675.97,114.92 C674.66,110.5 672.71,106.77 670.11,103.73 C667.52,100.69 664.25,98.35 660.32,96.72 C656.38,95.09 651.79,94.27 646.54,94.27 C639.31,94.27 632.63,96.06 626.52,99.65 C620.49,103.18 615.3,107.94 610.92,113.9 L610.92,94.5 L605.83,94.5 L605.83,95.82 L605.83,190.5 L610.92,190.5 L610.92,118.77 C615.46,112.37 620.67,107.36 626.52,103.74 C632.38,100.12 638.76,98.31 645.68,98.31 C650.29,98.31 654.29,99.03 657.68,100.47 C661.07,101.91 663.9,103.99 666.18,106.71 C668.45,109.43 670.13,112.74 671.22,116.65 C672.31,120.56 672.85,124.97 672.85,129.9 L672.85,190.49 L677.94,190.49 L677.94,129.9 C677.94,124.33 677.28,119.33 675.97,114.92 Z" id="Path"></path>
            <rect id="Rectangle" x="565.88" y="59.5" width="4.99" height="22.74"></rect>
            <path d="M761.49,100.4 L761.28,100.22 C758.59,98.3 755.5,96.83 752.02,95.81 C748.53,94.78 744.7,94.27 740.54,94.27 C735.55,94.27 731.04,95.01 727,96.48 C722.97,97.95 719.53,100.02 716.68,102.67 C713.83,105.33 711.64,108.5 710.1,112.18 C708.57,115.86 707.8,119.94 707.8,124.42 C707.8,130.18 709.01,135.26 711.45,139.64 C713.88,144.03 717.31,147.5 721.72,150.06 C719.93,151.02 718.33,152.14 716.92,153.42 C715.51,154.7 714.31,156.03 713.32,157.4 C712.33,158.78 711.56,160.19 711.02,161.63 C710.47,163.07 710.2,164.43 710.2,165.71 C710.2,169.36 711.24,172.18 713.32,174.16 C715.4,176.15 718.17,177.65 721.63,178.67 C715.54,180.72 710.74,183.65 707.22,187.46 C703.7,191.27 701.94,195.77 701.94,200.95 C701.94,204.41 702.79,207.67 704.49,210.75 C706.18,213.82 708.71,216.52 712.07,218.86 C715.43,221.2 719.59,223.04 724.56,224.38 C729.52,225.72 735.23,226.4 741.69,226.4 C748.03,226.4 753.78,225.58 758.93,223.95 C764.08,222.32 768.48,220.16 772.13,217.47 C775.78,214.78 778.58,211.66 780.54,208.1 C782.49,204.55 783.46,200.86 783.46,197.01 C783.46,192.85 782.47,189.52 780.49,187.03 C778.5,184.53 775.91,182.61 772.71,181.27 C769.51,179.92 765.84,179 761.71,178.48 C757.59,177.97 753.36,177.62 749.04,177.43 C744.72,177.23 740.49,177.03 736.37,176.8 C732.24,176.58 728.57,176.08 725.37,175.31 C722.17,174.54 719.58,173.36 717.59,171.76 C715.61,170.16 714.62,167.86 714.62,164.85 C714.62,162.61 715.53,160.25 717.35,157.79 C719.18,155.33 721.59,153.23 724.6,151.5 C729.21,153.61 734.52,154.67 740.54,154.67 C745.47,154.67 749.95,153.95 753.99,152.51 C758.02,151.07 761.46,149.02 764.31,146.36 C767.16,143.71 769.36,140.52 770.93,136.81 C772.5,133.1 773.29,128.97 773.29,124.42 C773.29,120.39 772.65,116.68 771.37,113.28 C770.26,110.36 768.73,107.75 766.82,105.39 L784.9,105.39 L784.9,100.4 L761.49,100.4 L761.49,100.4 Z M725.75,179.63 C729.15,180.27 732.81,180.69 736.75,180.88 C740.69,181.07 744.62,181.27 748.56,181.46 C752.5,181.65 756.29,181.97 759.94,182.42 C763.59,182.87 766.8,183.65 769.59,184.77 C772.37,185.89 774.61,187.48 776.31,189.52 C778.01,191.57 778.86,194.26 778.86,197.59 C778.86,201.24 777.86,204.6 775.88,207.67 C773.89,210.75 771.21,213.39 767.81,215.59 C764.42,217.8 760.48,219.51 756,220.73 C751.52,221.95 746.78,222.56 741.79,222.56 C736.28,222.56 731.36,221.98 727,220.83 C722.65,219.68 718.95,218.12 715.91,216.17 C712.87,214.22 710.55,211.9 708.95,209.21 C707.35,206.52 706.55,203.64 706.55,200.57 C706.55,198.07 707.03,195.77 707.99,193.65 C708.95,191.54 710.28,189.62 711.98,187.89 C713.67,186.16 715.69,184.61 718.03,183.24 C720.36,181.86 722.94,180.66 725.75,179.63 Z M768.58,124.52 C768.58,128.49 767.96,132.09 766.71,135.32 C765.46,138.55 763.64,141.34 761.23,143.67 C758.83,146.01 755.89,147.82 752.4,149.1 C748.91,150.38 744.96,151.02 740.54,151.02 C736.19,151.02 732.28,150.38 728.83,149.1 C725.37,147.82 722.44,146.01 720.04,143.67 C717.64,141.34 715.8,138.55 714.52,135.32 C713.24,132.09 712.6,128.49 712.6,124.52 C712.6,120.61 713.24,117.03 714.52,113.76 C715.8,110.5 717.64,107.71 720.04,105.41 C722.44,103.1 725.37,101.31 728.83,100.03 C732.28,98.75 736.19,98.11 740.54,98.11 C744.9,98.11 748.81,98.75 752.31,100.03 C755.79,101.31 758.74,103.1 761.14,105.41 C763.54,107.71 765.38,110.5 766.66,113.76 C767.94,117.03 768.58,120.61 768.58,124.52 Z" id="Shape"></path>
            <polygon id="Path" points="812.1 2.17 799.81 2.17 799.81 35.01 797.26 35.01 797.26 2.17 784.9 2.17 784.9 0.02 812.1 0.02 812.1 2.17"></polygon>
            <path d="M851.66,0.01 L851.66,35 L849.46,35 L849.46,5.18 C849.46,4.75 849.48,4.3 849.53,3.82 L835.76,28.27 C835.53,28.7 835.2,28.91 834.77,28.91 L834.37,28.91 C833.94,28.91 833.61,28.7 833.38,28.27 L819.24,3.77 C819.29,4.26 819.31,4.73 819.31,5.18 L819.31,35 L817.08,35 L817.08,0.01 L818.84,0.01 C819.07,0.01 819.25,0.03 819.38,0.08 C819.51,0.13 819.64,0.26 819.78,0.48 L833.9,24.81 C834.15,25.27 834.36,25.77 834.54,26.29 C834.64,26.03 834.75,25.77 834.86,25.51 C834.97,25.25 835.1,25.01 835.23,24.78 L848.95,0.47 C849.08,0.26 849.22,0.12 849.36,0.07 C849.5,0.02 849.68,5.68434189e-14 849.92,5.68434189e-14 L851.66,5.68434189e-14 L851.66,0.01 Z" id="Path"></path>
        </g>
    </g>
</svg>